<svg width="10" height="10" viewBox="0 0 10 10" fill="none" xmlns="http://www.w3.org/2000/svg">
<path d="M4.58333 0.833374C3.75924 0.833374 2.95365 1.07774 2.26845 1.53558C1.58324 1.99342 1.04919 2.64417 0.733827 3.40553C0.418462 4.16689 0.335948 5.00466 0.49672 5.81292C0.657491 6.62117 1.05433 7.3636 1.63705 7.94632C2.21977 8.52904 2.96219 8.92588 3.77045 9.08665C4.5787 9.24742 5.41648 9.1649 6.17784 8.84954C6.9392 8.53417 7.58994 8.00012 8.04778 7.31492C8.50562 6.62971 8.74999 5.82413 8.74999 5.00004C8.74999 4.45287 8.64222 3.91105 8.43282 3.40553C8.22343 2.9 7.91651 2.44067 7.5296 2.05376C7.14269 1.66685 6.68336 1.35994 6.17784 1.15054C5.67232 0.941148 5.1305 0.833374 4.58333 0.833374V0.833374ZM4.58333 8.33337C3.92405 8.33337 3.27959 8.13788 2.73142 7.77161C2.18326 7.40533 1.75602 6.88474 1.50373 6.27565C1.25143 5.66657 1.18542 4.99634 1.31404 4.34974C1.44266 3.70314 1.76013 3.10919 2.2263 2.64302C2.69248 2.17684 3.28642 1.85937 3.93302 1.73076C4.57963 1.60214 5.24985 1.66815 5.85894 1.92044C6.46802 2.17273 6.98862 2.59998 7.35489 3.14814C7.72116 3.6963 7.91666 4.34077 7.91666 5.00004C7.91666 5.8841 7.56547 6.73194 6.94035 7.35706C6.31523 7.98219 5.46738 8.33337 4.58333 8.33337V8.33337ZM4.58333 2.50004C4.47282 2.50004 4.36684 2.54394 4.2887 2.62208C4.21056 2.70022 4.16666 2.8062 4.16666 2.91671V4.58337H3.33332C3.22282 4.58337 3.11684 4.62727 3.0387 4.70541C2.96056 4.78355 2.91666 4.88953 2.91666 5.00004C2.91666 5.11055 2.96056 5.21653 3.0387 5.29467C3.11684 5.37281 3.22282 5.41671 3.33332 5.41671H4.58333C4.69383 5.41671 4.79981 5.37281 4.87795 5.29467C4.95609 5.21653 4.99999 5.11055 4.99999 5.00004V2.91671C4.99999 2.8062 4.95609 2.70022 4.87795 2.62208C4.79981 2.54394 4.69383 2.50004 4.58333 2.50004Z" fill="#2A2C38"/>
</svg>
