<svg width="10" height="10" viewBox="0 0 10 10" fill="none" xmlns="http://www.w3.org/2000/svg">
<path d="M4.99999 4.49996C5.16481 4.49996 5.32592 4.45108 5.46296 4.35951C5.60001 4.26795 5.70682 4.1378 5.76989 3.98552C5.83296 3.83325 5.84947 3.6657 5.81731 3.50405C5.78516 3.3424 5.70579 3.19391 5.58925 3.07737C5.4727 2.96082 5.32422 2.88146 5.16256 2.8493C5.00091 2.81715 4.83336 2.83365 4.68109 2.89672C4.52882 2.9598 4.39867 3.06661 4.3071 3.20365C4.21553 3.34069 4.16666 3.5018 4.16666 3.66662C4.16666 3.88764 4.25445 4.0996 4.41073 4.25588C4.56701 4.41216 4.77898 4.49996 4.99999 4.49996ZM4.70416 7.37912C4.74289 7.41818 4.78897 7.44917 4.83975 7.47033C4.89052 7.49148 4.94498 7.50237 4.99999 7.50237C5.05499 7.50237 5.10946 7.49148 5.16023 7.47033C5.211 7.44917 5.25709 7.41818 5.29582 7.37912L6.99999 5.67079C7.3958 5.27518 7.6654 4.77107 7.77469 4.22223C7.88397 3.67339 7.82803 3.10446 7.61394 2.58741C7.39985 2.07036 7.03723 1.62842 6.57194 1.31748C6.10666 1.00654 5.55961 0.840576 4.99999 0.840576C4.44037 0.840576 3.89332 1.00654 3.42804 1.31748C2.96275 1.62842 2.60013 2.07036 2.38604 2.58741C2.17195 3.10446 2.11601 3.67339 2.22529 4.22223C2.33458 4.77107 2.60418 5.27518 2.99999 5.67079L4.70416 7.37912ZM3.01249 3.47496C3.04096 3.17788 3.13541 2.89091 3.28896 2.635C3.4425 2.3791 3.65126 2.16071 3.89999 1.99579C4.22674 1.78125 4.6091 1.66694 4.99999 1.66694C5.39088 1.66694 5.77324 1.78125 6.09999 1.99579C6.34706 2.16014 6.55463 2.37721 6.70779 2.63137C6.86095 2.88553 6.95589 3.17047 6.98577 3.4657C7.01565 3.76093 6.97974 4.05912 6.88061 4.33881C6.78149 4.61851 6.62161 4.87276 6.41249 5.08329L4.99999 6.49579L3.58749 5.08329C3.37812 4.8748 3.21788 4.62226 3.11841 4.34404C3.01894 4.06582 2.98276 3.76892 3.01249 3.47496V3.47496ZM7.91666 8.33329H2.08332C1.97282 8.33329 1.86684 8.37719 1.7887 8.45533C1.71056 8.53347 1.66666 8.63945 1.66666 8.74996C1.66666 8.86046 1.71056 8.96644 1.7887 9.04458C1.86684 9.12272 1.97282 9.16662 2.08332 9.16662H7.91666C8.02716 9.16662 8.13314 9.12272 8.21128 9.04458C8.28942 8.96644 8.33332 8.86046 8.33332 8.74996C8.33332 8.63945 8.28942 8.53347 8.21128 8.45533C8.13314 8.37719 8.02716 8.33329 7.91666 8.33329Z" fill="#2A2C38"/>
</svg>
